<?xml version="1.0" encoding="UTF-8" standalone="no"?>
<!-- Created with Inkscape (http://www.inkscape.org/) -->

<svg
   version="1.1"
   id="svg1"
   width="880"
   height="880"
   viewBox="0 0 880 880"
   sodipodi:docname="broccoli-plant-publicdomainvectors.org.svg"
   inkscape:version="1.3.2 (091e20e, 2023-11-25, custom)"
   xmlns:inkscape="http://www.inkscape.org/namespaces/inkscape"
   xmlns:sodipodi="http://sodipodi.sourceforge.net/DTD/sodipodi-0.dtd"
   xmlns="http://www.w3.org/2000/svg"
   xmlns:svg="http://www.w3.org/2000/svg">
  <defs
     id="defs1">
    <clipPath
       clipPathUnits="userSpaceOnUse"
       id="clipPath3">
      <path
         d="M 0,660 H 660 V 0 H 0 Z"
         transform="translate(-238.4326,-440.57571)"
         id="path3" />
    </clipPath>
    <clipPath
       clipPathUnits="userSpaceOnUse"
       id="clipPath5">
      <path
         d="M 0,660 H 660 V 0 H 0 Z"
         transform="translate(-91.7539,-220.0762)"
         id="path5" />
    </clipPath>
    <clipPath
       clipPathUnits="userSpaceOnUse"
       id="clipPath7">
      <path
         d="M 0,660 H 660 V 0 H 0 Z"
         transform="translate(-258.79491,-441.05861)"
         id="path7" />
    </clipPath>
    <clipPath
       clipPathUnits="userSpaceOnUse"
       id="clipPath9">
      <path
         d="M 0,660 H 660 V 0 H 0 Z"
         transform="translate(-430.34671,-553.59811)"
         id="path9" />
    </clipPath>
    <clipPath
       clipPathUnits="userSpaceOnUse"
       id="clipPath11">
      <path
         d="M 0,660 H 660 V 0 H 0 Z"
         transform="translate(-419.94341,-530.08252)"
         id="path11" />
    </clipPath>
    <clipPath
       clipPathUnits="userSpaceOnUse"
       id="clipPath13">
      <path
         d="M 0,660 H 660 V 0 H 0 Z"
         transform="translate(-366.75291,-550.70801)"
         id="path13" />
    </clipPath>
    <clipPath
       clipPathUnits="userSpaceOnUse"
       id="clipPath15">
      <path
         d="M 0,660 H 660 V 0 H 0 Z"
         transform="translate(-525.99221,-367.13131)"
         id="path15" />
    </clipPath>
    <clipPath
       clipPathUnits="userSpaceOnUse"
       id="clipPath17">
      <path
         d="M 0,660 H 660 V 0 H 0 Z"
         transform="translate(-516.44632,-336.52931)"
         id="path17" />
    </clipPath>
    <clipPath
       clipPathUnits="userSpaceOnUse"
       id="clipPath19">
      <path
         d="M 0,660 H 660 V 0 H 0 Z"
         transform="translate(-340.79791,-534.93952)"
         id="path19" />
    </clipPath>
    <clipPath
       clipPathUnits="userSpaceOnUse"
       id="clipPath21">
      <path
         d="M 0,660 H 660 V 0 H 0 Z"
         transform="translate(-466.59181,-316.35551)"
         id="path21" />
    </clipPath>
    <clipPath
       clipPathUnits="userSpaceOnUse"
       id="clipPath23">
      <path
         d="M 0,660 H 660 V 0 H 0 Z"
         transform="translate(-414.57911,-472.00201)"
         id="path23" />
    </clipPath>
    <clipPath
       clipPathUnits="userSpaceOnUse"
       id="clipPath25">
      <path
         d="M 0,660 H 660 V 0 H 0 Z"
         transform="translate(-355.62601,-449.33591)"
         id="path25" />
    </clipPath>
    <clipPath
       clipPathUnits="userSpaceOnUse"
       id="clipPath27">
      <path
         d="M 0,660 H 660 V 0 H 0 Z"
         transform="translate(-504.77441,-297.42381)"
         id="path27" />
    </clipPath>
    <clipPath
       clipPathUnits="userSpaceOnUse"
       id="clipPath29">
      <path
         d="M 0,660 H 660 V 0 H 0 Z"
         transform="translate(-304.83501,-543.64601)"
         id="path29" />
    </clipPath>
    <clipPath
       clipPathUnits="userSpaceOnUse"
       id="clipPath31">
      <path
         d="M 0,660 H 660 V 0 H 0 Z"
         transform="translate(-304.92771,-94.4434)"
         id="path31" />
    </clipPath>
  </defs>
  <sodipodi:namedview
     id="namedview1"
     pagecolor="#ffffff"
     bordercolor="#000000"
     borderopacity="0.25"
     inkscape:showpageshadow="2"
     inkscape:pageopacity="0.0"
     inkscape:pagecheckerboard="0"
     inkscape:deskcolor="#d1d1d1"
     inkscape:zoom="0.67272727"
     inkscape:cx="439.25676"
     inkscape:cy="440"
     inkscape:window-width="1440"
     inkscape:window-height="830"
     inkscape:window-x="-6"
     inkscape:window-y="-6"
     inkscape:window-maximized="1"
     inkscape:current-layer="g1">
    <inkscape:page
       x="0"
       y="0"
       inkscape:label="1"
       id="page1"
       width="880"
       height="880"
       margin="125.92453 139.71733 85.181335 121.81786"
       bleed="0" />
  </sodipodi:namedview>
  <g
     id="g1"
     inkscape:groupmode="layer"
     inkscape:label="1">
    <g
       id="group-MC0">
      <path
         id="path2"
         d="m 0,0 c 13.712,-77.51 -40.923,-146.816 -140.404,-210.744 -25.883,-16.363 29.99,-96.398 58.718,-81.972 81.133,76.097 159.94,126.808 231.341,96.537 23.244,43.074 46.488,86.146 69.73,129.218 C 155.521,-38.013 91.655,-9.064 27.789,19.885 18.527,13.256 9.262,6.627 0,0"
         style="fill:#6fbc3a;fill-opacity:1;fill-rule:evenodd;stroke:none"
         transform="matrix(1.3333333,0,0,-1.3333333,317.91013,292.56573)"
         clip-path="url(#clipPath3)" />
      <path
         id="path4"
         d="m 0,0 c -4.975,-26.543 40.152,-84.691 64.993,-72.217 64.202,60.219 126.945,104.526 185.718,105.402 l 0.013,0.012 C 191.386,42.83 130.992,8.318 70.277,-39.629 49.868,-52.971 27.437,-48.523 0,0"
         style="fill:#549d34;fill-opacity:1;fill-rule:evenodd;stroke:none"
         transform="matrix(1.3333333,0,0,-1.3333333,122.33853,586.56507)"
         clip-path="url(#clipPath5)" />
      <path
         id="path6"
         d="m 0,0 c 5.474,-48.399 -5.632,-97.585 -39.952,-147.869 38.331,46.178 65.809,91.233 83.029,135.226 11.441,-7.255 22.883,-14.511 34.324,-21.766 -18.225,-38.042 -47.167,-73.779 -88.297,-106.894 42.292,26.254 79.939,54.817 110.621,86.848 10.35,-8.741 20.701,-17.482 31.05,-26.222 -38.689,-13.971 -73.55,-35.405 -107.218,-59.165 39.973,18.145 81.045,31.576 123.075,40.895 2.783,-16.701 5.567,-33.405 8.352,-50.108 -41.733,9.713 -86.717,-2.64 -132.59,-21.027 56.515,14.646 111.388,16.281 152.841,-3.818 -7.165,45.578 -14.09,103.549 -21.256,149.125 C 115.5,-11.162 77.02,2.451 38.542,16.064 25.694,10.708 12.847,5.355 0,0"
         style="fill:#8fd34f;fill-opacity:1;fill-rule:evenodd;stroke:none"
         transform="matrix(1.3333333,0,0,-1.3333333,345.05987,291.92187)"
         clip-path="url(#clipPath7)" />
      <path
         id="path8"
         d="m 0,0 c 1.142,-2.225 1.957,-4.528 2.468,-6.861 12.777,2.384 26.129,-3.739 32.364,-15.896 2.243,-4.374 3.314,-9.038 3.331,-13.64 6.348,-0.502 12.296,-4.183 15.415,-10.266 1.936,-3.772 2.486,-7.891 1.838,-11.775 5.448,-1.673 10.244,-5.458 13.051,-10.93 0.821,-1.6 1.424,-3.254 1.823,-4.93 7.681,0.251 15.184,-3.847 18.924,-11.139 2.88,-5.613 2.918,-11.934 0.648,-17.325 5.097,-1.445 9.605,-4.92 12.214,-10.005 4.987,-9.721 1.147,-21.645 -8.574,-26.63 -4.866,-2.498 -10.284,-2.781 -15.109,-1.224 -1.485,-7.279 -6.142,-13.846 -13.268,-17.5 -12.455,-6.389 -27.732,-1.472 -34.12,10.983 -3.748,7.31 -3.603,15.588 -0.327,22.473 -0.858,0.934 -1.654,1.94 -2.372,3.02 -12.684,-2.857 -26.176,3.069 -32.385,15.172 -1.832,3.573 -2.857,7.348 -3.142,11.115 -12.165,0.181 -23.835,6.902 -29.775,18.486 -6.339,12.357 -4.377,26.786 3.833,36.928 -7.129,2.119 -13.413,7.035 -17.075,14.176 -7.116,13.874 -1.638,30.887 12.235,38.003 C -24.131,19.351 -7.116,13.874 0,0"
         style="fill:#386f2e;fill-opacity:1;fill-rule:evenodd;stroke:none"
         transform="matrix(1.3333333,0,0,-1.3333333,573.7956,141.8692)"
         clip-path="url(#clipPath9)" />
      <path
         id="path10"
         d="m 0,0 c 1.486,-2.897 2.113,-6.013 1.973,-9.049 0.858,0.882 1.873,1.641 3.029,2.234 5.721,2.936 12.738,0.676 15.672,-5.045 2.18,-4.248 1.495,-9.21 -1.346,-12.685 0.807,-0.821 1.517,-1.76 2.103,-2.806 0.18,0.101 0.365,0.202 0.552,0.298 5.857,3.004 12.791,1.678 17.155,-2.802 0.185,0.107 0.373,0.213 0.565,0.311 5.266,2.702 11.724,0.623 14.425,-4.643 1.946,-3.795 1.409,-8.209 -1.014,-11.389 1.491,-1.277 2.763,-2.857 3.714,-4.711 1.005,-1.961 1.554,-4.036 1.687,-6.102 4.669,1.076 9.648,-1.097 11.934,-5.554 2.355,-4.591 1.077,-10.084 -2.775,-13.209 2.51,-1.406 4.65,-3.542 6.063,-6.296 3.817,-7.443 0.879,-16.571 -6.564,-20.388 -7.444,-3.818 -16.571,-0.88 -20.388,6.563 -0.48,0.936 -0.853,1.897 -1.124,2.871 -4.065,0.043 -7.993,1.953 -10.512,5.323 -0.615,-0.416 -1.262,-0.798 -1.939,-1.146 -9.216,-4.726 -20.517,-1.086 -25.243,8.128 -2.201,4.293 -2.588,9.037 -1.442,13.359 -1.565,1.21 -2.896,2.775 -3.858,4.65 -2.759,5.382 -1.674,11.72 2.247,15.884 -2.88,1.149 -5.372,3.304 -6.899,6.279 -0.408,0.797 -0.729,1.615 -0.965,2.445 -5.35,-1.487 -11.189,0.93 -13.822,6.066 -0.867,1.69 -1.293,3.491 -1.318,5.27 -5.784,0.667 -11.139,4.117 -13.996,9.686 -4.545,8.861 -1.047,19.729 7.814,24.273 C -15.412,12.36 -4.544,8.861 0,0"
         style="fill:#448733;fill-opacity:1;fill-rule:evenodd;stroke:none"
         transform="matrix(1.3333333,0,0,-1.3333333,559.92453,173.22333)"
         clip-path="url(#clipPath11)" />
      <path
         id="path12"
         d="m 0,0 c 8.033,-15.662 1.849,-34.869 -13.812,-42.901 -12.653,-6.49 -27.62,-3.699 -37.139,5.872 -2.63,-3.182 -5.936,-5.893 -9.842,-7.897 -5.598,-2.871 -11.659,-3.894 -17.483,-3.293 2.955,-10.615 -0.645,-22.046 -9.113,-29.058 2.715,-2.247 5.03,-5.07 6.741,-8.404 6.751,-13.165 1.553,-29.311 -11.611,-36.062 -13.163,-6.753 -29.309,-1.554 -36.061,11.611 -3.166,6.171 -3.703,13 -2.026,19.206 -11.311,-1.152 -22.689,4.592 -28.189,15.318 -7.093,13.829 -1.763,30.752 11.889,38.051 -4.867,3.272 -9,7.787 -11.865,13.375 -9.038,17.619 -2.081,39.23 15.538,48.268 7.371,3.78 15.439,4.76 22.993,3.334 2.713,6.102 7.45,11.353 13.855,14.639 10.682,5.479 23.097,4.004 32.082,-2.762 1.452,1.196 3.054,2.256 4.795,3.15 13.062,6.699 29.084,1.542 35.785,-11.521 2.246,-4.38 3.158,-9.091 2.887,-13.673 C -18.24,18.109 -6.001,11.699 0,0"
         style="fill:#386f2e;fill-opacity:1;fill-rule:evenodd;stroke:none"
         transform="matrix(1.3333333,0,0,-1.3333333,489.00387,145.72267)"
         clip-path="url(#clipPath13)" />
      <path
         id="path14"
         d="m 0,0 c 5.142,-10.023 2.584,-21.963 -5.496,-29.084 3.12,-2.557 5.779,-5.782 7.738,-9.6 3.648,-7.113 4.208,-14.996 2.178,-22.123 8.952,0.933 17.965,-3.604 22.319,-12.094 5.661,-11.037 1.303,-24.574 -9.734,-30.236 -2.368,-1.215 -4.853,-1.967 -7.35,-2.293 0.957,-11.721 -4.605,-23.41 -15.022,-29.899 0.618,-0.941 1.193,-1.923 1.721,-2.949 7.894,-15.392 1.816,-34.269 -13.576,-42.166 -12.393,-6.355 -27.046,-3.65 -36.406,5.678 -1.543,-1.266 -3.241,-2.391 -5.09,-3.338 -13.973,-7.17 -31.112,-1.65 -38.28,12.324 -1.038,2.024 -1.81,4.116 -2.328,6.233 -13.939,-1.739 -28.101,5.228 -34.882,18.453 -8.224,16.031 -2.649,35.502 12.361,44.875 l -0.095,0.18 c -12.446,24.263 -2.865,54.025 21.401,66.47 17.28,8.864 37.348,6.552 51.964,-4.277 2.295,2.937 5.163,5.488 8.548,7.469 -1.093,1.323 -2.061,2.781 -2.875,4.371 -6.078,11.848 -1.4,26.378 10.449,32.455 C -20.607,16.526 -6.077,11.849 0,0"
         style="fill:#386f2e;fill-opacity:1;fill-rule:evenodd;stroke:none"
         transform="matrix(1.3333333,0,0,-1.3333333,701.32293,390.4916)"
         clip-path="url(#clipPath15)" />
      <path
         id="path16"
         d="m 0,0 c 3.738,-7.293 0.86,-16.234 -6.431,-19.975 -1.988,-1.019 -4.099,-1.545 -6.194,-1.625 5.161,-1.845 9.659,-5.582 12.359,-10.843 4.076,-7.95 2.933,-17.2 -2.171,-23.84 2.233,-1.436 4.128,-3.457 5.427,-5.989 3.921,-7.644 0.903,-17.021 -6.743,-20.943 -1.372,-0.705 -2.8,-1.181 -4.24,-1.453 -0.654,-5.383 -3.879,-10.353 -9.067,-13.014 -4.456,-2.285 -9.452,-2.4 -13.783,-0.734 -1.539,-1.738 -3.42,-3.227 -5.611,-4.35 -2.138,-1.097 -4.387,-1.752 -6.642,-2.002 0.486,-0.617 0.92,-1.291 1.292,-2.017 3.142,-6.125 0.723,-13.639 -5.402,-16.781 -6.127,-3.143 -13.641,-0.723 -16.783,5.402 -1.113,2.168 -1.528,4.51 -1.328,6.769 -10.365,-3.207 -21.845,1.385 -26.967,11.372 -5.741,11.189 -1.323,24.914 9.868,30.652 3.001,1.541 6.186,2.348 9.35,2.492 -0.463,9.451 4.52,18.75 13.49,23.352 0.526,0.269 1.057,0.517 1.594,0.748 -4.251,11.56 0.696,24.742 11.935,30.507 5.959,3.057 12.579,3.459 18.516,1.643 -1.786,6.615 1.216,13.805 7.557,17.058 C -12.683,10.168 -3.741,7.289 0,0"
         style="fill:#448733;fill-opacity:1;fill-rule:evenodd;stroke:none"
         transform="matrix(1.3333333,0,0,-1.3333333,688.59507,431.29427)"
         clip-path="url(#clipPath17)" />
      <path
         id="path18"
         d="m 0,0 c 6.143,-11.978 1.414,-26.668 -10.564,-32.811 -9.933,-5.094 -21.728,-2.713 -28.971,5.077 -2.379,-3.826 -5.792,-7.075 -10.092,-9.28 -6.811,-3.494 -14.451,-3.652 -21.063,-1.082 3.7,-7.612 1.759,-16.559 -4.264,-22.004 2.262,-1.339 4.185,-3.311 5.472,-5.822 3.637,-7.088 0.837,-15.78 -6.25,-19.416 -7.089,-3.635 -15.781,-0.837 -19.417,6.251 -2.608,5.084 -1.904,10.995 1.319,15.272 -4.289,1.548 -8.025,4.662 -10.27,9.038 -3.693,7.203 -2.256,15.685 2.971,21.276 -3.31,1.748 -6.136,4.493 -7.974,8.077 -4.762,9.285 -1.096,20.674 8.189,25.437 2.764,1.417 5.713,2.087 8.619,2.085 -0.8,7.871 3.198,15.788 10.661,19.616 7.079,3.631 15.325,2.583 21.212,-2.007 0.823,5.337 4.108,10.219 9.28,12.872 8.571,4.396 19.083,1.012 23.481,-7.559 2.009,-3.917 2.39,-8.24 1.399,-12.196 C -15.903,14.806 -5.058,9.859 0,0"
         style="fill:#448733;fill-opacity:1;fill-rule:evenodd;stroke:none"
         transform="matrix(1.3333333,0,0,-1.3333333,454.3972,166.74733)"
         clip-path="url(#clipPath19)" />
      <path
         id="path20"
         d="m 0,0 c 6.143,-22.137 -3.862,-46.285 -25.106,-57.182 -24.304,-12.464 -54.112,-2.869 -66.576,21.434 -6.386,12.449 -6.98,26.34 -2.777,38.607 -7.208,4.526 -13.333,10.991 -17.5,19.114 -4.169,8.129 -5.845,16.879 -5.314,25.38 -15.709,-3.163 -32.144,3.134 -41.634,16.421 -16.119,-2.661 -32.793,5.174 -40.651,20.491 -8.446,16.47 -3.921,36.172 9.825,47.459 -4.342,3.124 -8.028,7.293 -10.637,12.381 -8.793,17.144 -2.023,38.17 15.121,46.964 6.653,3.412 13.89,4.48 20.77,3.509 2.742,6.078 7.483,11.304 13.876,14.584 9.772,5.013 20.99,4.239 29.742,-1.061 2.774,5.845 7.421,10.858 13.624,14.041 14.986,7.687 33.369,1.769 41.055,-13.218 2.282,-4.448 3.364,-9.194 3.367,-13.873 10.477,-10e-4 20.581,-5.727 25.691,-15.69 3.657,-7.129 4.058,-15.069 1.751,-22.128 7.631,-3.812 14.225,-9.86 18.687,-17.797 13.467,4.476 28.555,-1.41 35.233,-14.428 5.58,-10.878 3.686,-23.619 -3.79,-32.371 8.77,-4.57 16.259,-11.806 21.115,-21.272 C 48.337,47.061 38.74,17.254 14.438,4.787 9.773,2.397 4.907,0.82 0,0"
         style="fill:#549d34;fill-opacity:1;fill-rule:evenodd;stroke:none"
         transform="matrix(1.3333333,0,0,-1.3333333,622.1224,458.19267)"
         clip-path="url(#clipPath21)" />
      <path
         id="path22"
         d="m 0,0 c 1.278,-1.614 2.419,-3.34 3.407,-5.164 8.076,-1.033 15.512,-5.905 19.494,-13.669 1.19,-2.318 2.005,-4.775 2.441,-7.288 4.823,-2.924 8.841,-7.11 11.577,-12.209 8.716,-1.568 16.513,-7.084 20.762,-15.367 6.108,-11.909 3.209,-26.072 -6.195,-34.706 4.021,-13.513 -0.625,-28.209 -11.639,-36.961 1.733,-12.433 -4.417,-25.152 -16.215,-31.203 -14.91,-7.646 -33.208,-1.755 -40.856,13.155 -2.219,4.33 -3.341,9.056 -3.348,13.801 -3.327,2.753 -6.092,6.174 -8.105,10.097 -3.195,6.23 -4.221,13.206 -3.116,19.898 -6.952,1.577 -13.345,5.055 -18.444,10.035 -16.828,-6.298 -36.085,0.88 -44.486,17.255 -5.12,9.987 -5.203,21.589 -0.642,31.457 -2.021,5.171 -2.769,10.698 -2.247,16.136 -2.636,2.322 -4.847,5.142 -6.49,8.346 -7.153,13.943 -1.644,31.054 12.3,38.205 5.281,2.71 11.183,3.658 16.899,2.855 0.885,0.574 1.803,1.105 2.748,1.59 7.103,3.645 15.148,4.337 22.524,2.283 1.711,1.421 3.584,2.66 5.591,3.689 14.999,7.694 33.403,1.767 41.098,-13.23 C 0.107,13.058 1.078,6.392 0,0"
         style="fill:#6fbc3a;fill-opacity:1;fill-rule:evenodd;stroke:none"
         transform="matrix(1.3333333,0,0,-1.3333333,552.77213,250.664)"
         clip-path="url(#clipPath23)" />
      <path
         id="path24"
         d="m 0,0 c -3.213,0.845 -6.068,3 -7.705,6.189 -3.053,5.953 -0.702,13.253 5.251,16.307 3.573,1.832 7.63,1.718 10.965,0.048 1.169,1.369 2.617,2.538 4.318,3.41 5.262,2.699 11.42,1.797 15.667,-1.8 1.248,2.684 3.366,4.991 6.206,6.446 6.774,3.475 15.082,0.8 18.557,-5.974 2.185,-4.261 1.937,-9.128 -0.234,-13.018 2.237,-1.6 4.135,-3.742 5.477,-6.357 0.936,-1.824 1.525,-3.735 1.795,-5.656 4.813,2.307 10.617,0.373 13.068,-4.405 1.278,-2.491 1.396,-5.27 0.553,-7.724 4.391,-0.809 8.371,-3.574 10.567,-7.855 0.832,-1.623 1.338,-3.33 1.542,-5.042 5.601,1.428 11.645,-1.14 14.395,-6.501 3.193,-6.227 0.735,-13.863 -5.492,-17.057 -1.308,-0.671 -2.681,-1.091 -4.06,-1.281 1.12,-1.166 2.093,-2.513 2.868,-4.024 4.282,-8.348 0.987,-18.587 -7.361,-22.868 -1.065,-0.547 -2.162,-0.969 -3.272,-1.274 0.39,-0.545 0.746,-1.125 1.061,-1.739 3.438,-6.705 0.792,-14.929 -5.915,-18.368 -6.705,-3.441 -14.929,-0.792 -18.368,5.913 -1.87,3.647 -1.941,7.744 -0.535,11.274 -3.498,1.235 -6.549,3.757 -8.375,7.318 -2.427,4.73 -2.104,10.144 0.381,14.425 -0.955,1.12 -1.797,2.368 -2.498,3.737 -0.347,0.675 -0.651,1.364 -0.911,2.06 -7.843,-0.639 -15.662,3.4 -19.475,10.836 -0.155,0.299 -0.3,0.603 -0.437,0.905 -1.234,-1.186 -2.659,-2.215 -4.261,-3.038 -8.826,-4.528 -19.652,-1.043 -24.178,7.785 -3.367,6.561 -2.304,14.225 2.089,19.587 -0.535,0.73 -1.018,1.511 -1.444,2.34 C -2.329,-10.393 -2.235,-4.722 0,0"
         style="fill:#8fd34f;fill-opacity:1;fill-rule:evenodd;stroke:none"
         transform="matrix(1.3333333,0,0,-1.3333333,474.168,280.88547)"
         clip-path="url(#clipPath25)" />
      <path
         id="path26"
         d="m 0,0 c 2.254,-4.395 1.802,-9.465 -0.745,-13.311 0.63,-0.73 1.185,-1.544 1.643,-2.439 2.897,-5.647 1.029,-12.48 -4.127,-15.92 2.816,-6.215 0.28,-13.613 -5.859,-16.762 -2.717,-1.394 -5.7,-1.728 -8.474,-1.154 -0.962,-3.381 -3.267,-6.367 -6.64,-8.098 -5.216,-2.673 -11.385,-1.525 -15.308,2.42 -0.675,-2.74 -2.49,-5.185 -5.198,-6.574 -4.961,-2.547 -11.047,-0.586 -13.592,4.377 -2.545,4.961 -0.586,11.045 4.376,13.592 3.542,1.816 7.656,1.336 10.649,-0.893 0.408,4.283 2.912,8.278 7.003,10.412 -0.238,0.373 -0.46,0.76 -0.666,1.161 -3.506,6.835 -0.807,15.218 6.028,18.724 2.563,1.315 5.344,1.758 8.004,1.436 -0.2,0.32 -0.388,0.65 -0.564,0.992 -3.324,6.48 -0.764,14.428 5.717,17.752 C -11.273,9.039 -3.324,6.48 0,0"
         style="fill:#549d34;fill-opacity:1;fill-rule:evenodd;stroke:none"
         transform="matrix(1.3333333,0,0,-1.3333333,673.03253,483.43493)"
         clip-path="url(#clipPath27)" />
      <path
         id="path28"
         d="m 0,0 c 2.493,-4.862 0.574,-10.822 -4.287,-13.316 -1.495,-0.765 -3.093,-1.114 -4.662,-1.09 0.141,-4.711 -2.376,-9.31 -6.849,-11.604 -3.132,-1.605 -6.619,-1.774 -9.715,-0.75 -1.238,-2.379 -3.198,-4.41 -5.764,-5.726 -2.517,-1.291 -5.249,-1.708 -7.857,-1.363 1.142,-5.215 -1.304,-10.746 -6.278,-13.298 -5.925,-3.039 -13.189,-0.699 -16.228,5.226 -1.56,3.042 -1.701,6.439 -0.668,9.435 -2.171,4.495 -0.367,9.924 4.098,12.213 2.403,1.235 5.097,1.309 7.444,0.431 0.138,2.514 0.985,4.952 2.44,7.012 -0.891,0.882 -1.658,1.918 -2.262,3.093 -3.064,5.975 -0.706,13.303 5.27,16.367 5.972,3.064 13.3,0.706 16.365,-5.27 0.841,-1.638 1.271,-3.378 1.333,-5.103 0.104,0.056 0.209,0.113 0.314,0.166 2.828,1.452 5.948,1.728 8.809,1.014 0.575,2.85 2.394,5.42 5.181,6.85 C -8.454,6.779 -2.493,4.861 0,0"
         style="fill:#549d34;fill-opacity:1;fill-rule:evenodd;stroke:none"
         transform="matrix(1.3333333,0,0,-1.3333333,406.44667,155.13867)"
         clip-path="url(#clipPath29)" />
      <path
         id="path30"
         d="M 0,0 C 102.148,0 185.459,10.414 185.459,23.184 185.459,35.951 102.148,46.363 0,46.363 -102.147,46.363 -185.459,35.951 -185.459,23.184 -185.459,10.414 -102.147,0 0,0"
         style="fill:#e8e8e7;fill-opacity:1;fill-rule:evenodd;stroke:none"
         transform="matrix(1.3333333,0,0,-1.3333333,406.57027,754.07547)"
         clip-path="url(#clipPath31)" />
    </g>
  </g>
</svg>
